<svg display="none" xmlns="http://www.w3.org/2000/svg">
	<symbol id="icon-arrow-right" viewBox="0 0 80 80" fill="none">
		<g>
			<path d="M6 40L74 40" stroke="white" stroke-width="2" stroke-linecap="round" stroke-linejoin="round" />
			<path d="M51 17L74.3333 40.3333L51 63.6667" stroke="white" stroke-width="2" stroke-linecap="round" stroke-linejoin="round" />
		</g>
	</symbol>
	<symbol id="icon-arrow-basket" viewBox="0 0 16 8" fill="none">
		<g>
			<path d="M15.3536 4.35355C15.5488 4.15829 15.5488 3.84171 15.3536 3.64645L12.1716 0.464466C11.9763 0.269204 11.6597 0.269204 11.4645 0.464466C11.2692 0.659728 11.2692 0.976311 11.4645 1.17157L14.2929 4L11.4645 6.82843C11.2692 7.02369 11.2692 7.34027 11.4645 7.53553C11.6597 7.7308 11.9763 7.7308 12.1716 7.53553L15.3536 4.35355ZM0 4.5H15V3.5H0V4.5Z" fill="white" />
		</g>
	</symbol>
	<symbol id="icon-arrow-link" viewBox="0 0 16 9" fill="none">
		<g>
			<path d="M15.3536 4.85355C15.5488 4.65829 15.5488 4.34171 15.3536 4.14645L12.1716 0.964466C11.9763 0.769204 11.6597 0.769204 11.4645 0.964466C11.2692 1.15973 11.2692 1.47631 11.4645 1.67157L14.2929 4.5L11.4645 7.32843C11.2692 7.52369 11.2692 7.84027 11.4645 8.03553C11.6597 8.2308 11.9763 8.2308 12.1716 8.03553L15.3536 4.85355ZM0 5H15V4H0V5Z" />
		</g>
	</symbol>
	<symbol id="icon-arrow-slider" viewBox="0 0 20 8" fill="none">
		<g>
			<path d="M19.3536 4.35356C19.5488 4.1583 19.5488 3.84171 19.3536 3.64645L16.1716 0.464469C15.9763 0.269207 15.6597 0.269207 15.4645 0.464469C15.2692 0.659731 15.2692 0.976314 15.4645 1.17158L18.2929 4L15.4645 6.82843C15.2692 7.02369 15.2692 7.34027 15.4645 7.53554C15.6597 7.7308 15.9763 7.7308 16.1716 7.53554L19.3536 4.35356ZM-9.90792e-08 4.5L19 4.5L19 3.5L9.90792e-08 3.5L-9.90792e-08 4.5Z" fill="white" />
		</g>
	</symbol>
	<symbol id="icon-arrow-top" viewBox="0 0 20 21" fill="none">
		<g>
			<path fill-rule="evenodd" clip-rule="evenodd" d="M1.66782 14.8737C1.87421 15.0572 2.19025 15.0386 2.37371 14.8322L10 6.25259L17.6263 14.8322C17.8098 15.0386 18.1258 15.0572 18.3322 14.8737C18.5386 14.6902 18.5572 14.3742 18.3737 14.1678L10 4.74739L1.6263 14.1678C1.44284 14.3742 1.46143 14.6902 1.66782 14.8737Z" fill="black" />
		</g>
	</symbol>
	<symbol id="icon-border-one" viewBox="0 0 158 55" fill="none">
		<g>
			<path opacity="0.8" d="M79.2383 53.4843C110.295 50.844 168.844 40.417 154.59 19.8313C136.773 -5.90074 65.1225 1.19207 40.6594 4.56532C16.1964 7.93856 -12.2424 22.874 6.63375 41.0889C21.7347 55.6608 80.3307 47.8001 107.741 42.0483" stroke="white" stroke-linecap="square" stroke-linejoin="round" />
		</g>
	</symbol>
	<symbol id="icon-burger-open" viewBox="0 0 64 64" fill="none">
		<g>
			<path d="M53 21H11c-1.7 0-3-1.3-3-3s1.3-3 3-3h42c1.7 0 3 1.3 3 3s-1.3 3-3 3zM53 35H11c-1.7 0-3-1.3-3-3s1.3-3 3-3h42c1.7 0 3 1.3 3 3s-1.3 3-3 3zM53 49H11c-1.7 0-3-1.3-3-3s1.3-3 3-3h42c1.7 0 3 1.3 3 3s-1.3 3-3 3z" fill="white" opacity="1" data-original="white">
			</path>
		</g>
	</symbol>
	<symbol id="icon-burger-close" viewBox="0 0 40 40" fill="none">
		<g>
			<path d="M19.9987 36.6663C29.2034 36.6663 36.6654 29.2044 36.6654 19.9997C36.6654 10.7949 29.2034 3.33301 19.9987 3.33301C10.794 3.33301 3.33203 10.7949 3.33203 19.9997C3.33203 29.2044 10.794 36.6663 19.9987 36.6663Z" stroke="white" stroke-linecap="round" stroke-linejoin="round" />
			<path d="M25 15L15 25" stroke="white" stroke-linecap="round" stroke-linejoin="round" />
			<path d="M15 15L25 25" stroke="white" stroke-linecap="round" stroke-linejoin="round" />
		</g>
	</symbol>
	<symbol id="icon-navigation-arrow" viewBox="0 0 29 28" fill="none">
		<g>
			<path d="M18 21L11 14L18 7" stroke-linecap="round" stroke-linejoin="round" />
		</g>
	</symbol>
	<symbol id="icon-basket" viewBox="0 0 34 34" fill="none">
		<g>
			<path d="M12.7526 31.1654C13.535 31.1654 14.1693 30.5311 14.1693 29.7487C14.1693 28.9663 13.535 28.332 12.7526 28.332C11.9702 28.332 11.3359 28.9663 11.3359 29.7487C11.3359 30.5311 11.9702 31.1654 12.7526 31.1654Z" stroke-linecap="round" stroke-linejoin="round" />
			<path d="M28.3307 31.1654C29.1131 31.1654 29.7474 30.5311 29.7474 29.7487C29.7474 28.9663 29.1131 28.332 28.3307 28.332C27.5483 28.332 26.9141 28.9663 26.9141 29.7487C26.9141 30.5311 27.5483 31.1654 28.3307 31.1654Z" stroke-linecap="round" stroke-linejoin="round" />
			<path d="M1.41406 1.41797H7.08073L10.8774 20.3871C11.0069 21.0394 11.3618 21.6252 11.8798 22.0422C12.3977 22.4592 13.0459 22.6807 13.7107 22.668H27.4807C28.1456 22.6807 28.7937 22.4592 29.3117 22.0422C29.8297 21.6252 30.1845 21.0394 30.3141 20.3871L32.5807 8.5013H8.4974" stroke-linecap="round" stroke-linejoin="round" />
		</g>
	</symbol>
	<symbol id="icon-coin-ru" viewBox="0 0 12 38" fill="none">
		<g>
			<path d="M9.216 25.768C9.632 25.768 10 25.896 10.32 26.152C10.64 26.408 10.8 26.728 10.8 27.112C10.8 27.528 10.432 27.864 9.696 28.12C8.992 28.408 7.744 28.648 5.952 28.84C5.952 29.736 5.984 30.856 6.048 32.2L6.096 35.272C6.096 35.88 5.968 36.36 5.712 36.712C5.456 37.064 5.056 37.24 4.512 37.24C4.16 37.24 3.872 37.096 3.648 36.808C3.456 36.488 3.36 36.104 3.36 35.656L3.456 29.032L1.92 29.08C1.472 29.08 1.088 28.952 0.768 28.696C0.48 28.408 0.336 28.072 0.336 27.688C0.336 27.304 0.72 26.968 1.488 26.68C1.648 26.616 1.904 26.52 2.256 26.392C2.64 26.264 3.056 26.168 3.504 26.104L3.6 20.44C3.152 20.472 2.592 20.488 1.92 20.488C1.408 20.488 1.008 20.424 0.72 20.296C0.464 20.168 0.336 19.928 0.336 19.576C0.336 19.416 0.384 19.336 0.48 19.336C0.576 19.304 0.736 19.288 0.96 19.288C1.184 19.288 1.36 19.288 1.488 19.288C2 19.288 2.704 19.176 3.6 18.952V18.52C3.6 11.064 3.184 5.352 2.352 1.384C2.832 0.647998 3.44 0.279998 4.176 0.279998C5.36 0.279998 6.432 0.551998 7.392 1.096C8.384 1.608 9.2 2.312 9.84 3.208C11.088 5.064 11.712 7.144 11.712 9.448C11.712 11.848 11.2 13.992 10.176 15.88C9.152 17.768 7.664 19.24 5.712 20.296C5.712 21.576 5.76 23.448 5.856 25.912L8.16 25.816C8.48 25.816 8.688 25.816 8.784 25.816C8.912 25.784 9.056 25.768 9.216 25.768ZM5.04 2.824C5.04 4.456 5.136 6.984 5.328 10.408L5.616 17.992C6.864 16.808 7.776 15.576 8.352 14.296C8.96 12.984 9.264 11.512 9.264 9.88V9.832C9.264 9.096 9.184 8.168 9.024 7.048C8.928 6.664 8.752 6.28 8.496 5.896C8.24 5.512 8.096 5.288 8.064 5.224C7.84 4.904 7.248 4.408 6.288 3.736L5.04 2.824Z" fill="black" />
		</g>
	</symbol>
	<symbol id="icon-basket-button" viewBox="0 0 34 34" fill="none">
		<g>
			<path d="M12.7526 31.1654C13.535 31.1654 14.1693 30.5311 14.1693 29.7487C14.1693 28.9663 13.535 28.332 12.7526 28.332C11.9702 28.332 11.3359 28.9663 11.3359 29.7487C11.3359 30.5311 11.9702 31.1654 12.7526 31.1654Z" stroke="white" stroke-linecap="round" stroke-linejoin="round" />
			<path d="M28.3307 31.1654C29.1131 31.1654 29.7474 30.5311 29.7474 29.7487C29.7474 28.9663 29.1131 28.332 28.3307 28.332C27.5483 28.332 26.9141 28.9663 26.9141 29.7487C26.9141 30.5311 27.5483 31.1654 28.3307 31.1654Z" stroke="white" stroke-linecap="round" stroke-linejoin="round" />
			<path d="M1.41406 1.41797H7.08073L10.8774 20.3871C11.0069 21.0394 11.3618 21.6252 11.8798 22.0422C12.3977 22.4592 13.0459 22.6807 13.7107 22.668H27.4807C28.1456 22.6807 28.7937 22.4592 29.3117 22.0422C29.8297 21.6252 30.1845 21.0394 30.3141 20.3871L32.5807 8.5013H8.4974" stroke="white" stroke-linecap="round" stroke-linejoin="round" />
		</g>
	</symbol>
	<symbol id="icon-basket-close" viewBox="0 0 40 40" fill="none">
		<g opacity="0.5">
			<path d="M19.9987 36.6654C29.2034 36.6654 36.6654 29.2034 36.6654 19.9987C36.6654 10.794 29.2034 3.33203 19.9987 3.33203C10.794 3.33203 3.33203 10.794 3.33203 19.9987C3.33203 29.2034 10.794 36.6654 19.9987 36.6654Z" stroke="black" stroke-width="2" stroke-linecap="round" stroke-linejoin="round" />
			<path d="M25 15L15 25" stroke="black" stroke-width="2" stroke-linecap="round" stroke-linejoin="round" />
			<path d="M15 15L25 25" stroke="black" stroke-width="2" stroke-linecap="round" stroke-linejoin="round" />
		</g>
	</symbol>
	<symbol id="icon-name-border" viewBox="0 0 152 41" fill="none">
		<g>
			<path d="M120.647 6.91528C93.8092 1.9137 7.78197 -2.57562 1.69319 17.1962C-4.39558 36.968 40.0912 44.4907 120.096 37.0972C182.576 31.3233 136.758 -1.81754 94.2506 0.981744" stroke="#419197" stroke-width="1.5" stroke-linecap="round" />
		</g>
	</symbol>
	<symbol id="icon-name-border-white" viewBox="0 0 112 42" fill="none">
		<g>
			<path d="M88.269 6.42206C68.3233 2.19874 4.8703 -0.00759983 1.21929 19.5574C-2.43172 39.1224 30.5988 45.3691 89.126 36.0646C134.833 28.7983 99.7522 -2.56275 68.6089 1.27258" stroke="white" stroke-width="1.5" stroke-linecap="round" />
		</g>
	</symbol>
</svg>
